<?xml version="1.0" encoding="iso-8859-1"?>
<!-- Generator: Adobe Illustrator 28.1.0, SVG Export Plug-In . SVG Version: 6.00 Build 0)  -->
<svg version="1.1" baseProfile="basic" id="Layer_1"
	 xmlns="http://www.w3.org/2000/svg" xmlns:xlink="http://www.w3.org/1999/xlink" x="0px" y="0px" viewBox="0 0 32 32"
	 xml:space="preserve">
<linearGradient id="SVGID_1_" gradientUnits="userSpaceOnUse" x1="16" y1="4.9049" x2="16" y2="27.01">
	<stop  offset="0" style="stop-color:#00B5F0"/>
	<stop  offset="1" style="stop-color:#008CC7"/>
</linearGradient>
<path style="fill:url(#SVGID_1_);" d="M26,27H6c-1.105,0-2-0.895-2-2V7c0-1.105,0.895-2,2-2h4.027c0.623,0,1.22,0.247,1.66,0.688
	l0.624,0.624C12.753,6.753,13.35,7,13.973,7H26c1.105,0,2,0.895,2,2v16C28,26.105,27.105,27,26,27z"/>
<linearGradient id="SVGID_00000083058237400070535380000008415716677215942335_" gradientUnits="userSpaceOnUse" x1="16" y1="5" x2="16" y2="27">
	<stop  offset="0" style="stop-color:#000000;stop-opacity:0.02"/>
	<stop  offset="1" style="stop-color:#000000;stop-opacity:0.15"/>
</linearGradient>
<path style="fill:url(#SVGID_00000083058237400070535380000008415716677215942335_);" d="M26,7H13.973
	c-0.623,0-1.22-0.247-1.66-0.688l-0.625-0.625C11.247,5.247,10.65,5,10.027,5H6C4.895,5,4,5.895,4,7v18c0,1.105,0.895,2,2,2h20
	c1.105,0,2-0.895,2-2V9C28,7.895,27.105,7,26,7z M27.75,25c0,0.965-0.785,1.75-1.75,1.75H6c-0.965,0-1.75-0.785-1.75-1.75V7
	c0-0.965,0.785-1.75,1.75-1.75h4.027c0.56,0,1.087,0.218,1.484,0.615l0.625,0.625c0.491,0.491,1.143,0.761,1.837,0.761H26
	c0.965,0,1.75,0.785,1.75,1.75V25z"/>
<linearGradient id="SVGID_00000126295119795420608030000004046716714984519568_" gradientUnits="userSpaceOnUse" x1="16" y1="8.9222" x2="16" y2="27.0081">
	<stop  offset="0" style="stop-color:#00DCFF"/>
	<stop  offset="0.8592" style="stop-color:#00BFFF"/>
	<stop  offset="1" style="stop-color:#00A8E0"/>
</linearGradient>
<path style="fill:url(#SVGID_00000126295119795420608030000004046716714984519568_);" d="M27,27H5c-1.105,0-2-0.895-2-2V11
	c0-1.105,0.895-2,2-2h22c1.105,0,2,0.895,2,2v14C29,26.105,28.105,27,27,27z"/>
<linearGradient id="SVGID_00000058573000358305359150000013916628426005917060_" gradientUnits="userSpaceOnUse" x1="16" y1="9" x2="16" y2="27">
	<stop  offset="0" style="stop-color:#000000;stop-opacity:0.02"/>
	<stop  offset="1" style="stop-color:#000000;stop-opacity:0.15"/>
</linearGradient>
<path style="fill:url(#SVGID_00000058573000358305359150000013916628426005917060_);" d="M27,9H5c-1.105,0-2,0.895-2,2v14
	c0,1.105,0.895,2,2,2h22c1.105,0,2-0.895,2-2V11C29,9.895,28.105,9,27,9z M28.75,25c0,0.965-0.785,1.75-1.75,1.75H5
	c-0.965,0-1.75-0.785-1.75-1.75V11c0-0.965,0.785-1.75,1.75-1.75h22c0.965,0,1.75,0.785,1.75,1.75V25z"/>
</svg>