<?xml version="1.0" encoding="UTF-8"?>
<svg xmlns="http://www.w3.org/2000/svg" viewBox="0 0 512 512" role="img" aria-label="Quick Shell micro: terminal, folder, and lightning bolt">
  <title>Micro Folder Bolt</title>

  <!-- Terminal background -->
  <rect width="512" height="512" rx="96" fill="#1E222A"/>
  <rect y="56" width="512" height="48" rx="0" fill="#252830"/>
  <rect y="96" width="512" height="4" fill="#3A4150" fill-opacity="0.6"/>

  <!-- Terminal prompt (top-left, above folder) -->
  <path fill="#4EC9B0" d="M80 132V100l40 16z"/>
  <rect x="136" y="116" width="64" height="16" rx="4" fill="#4EC9B0"/>

  <!-- Folder -->
  <path fill="#0078D4" d="M72 212c0-22 18-40 40-40h88l44 44h148c22 0 40 18 40 40v124c0 22-18 40-40 40H112c-22 0-40-18-40-40V212z"/>
  <path fill="#FFFFFF" fill-opacity="0.2" d="M72 228h44l44-44h76l24 44H72z"/>

  <!-- Lightning bolt (enlarged) -->
  <path fill="#FFD84C" d="M320 68L168 316h100l-34 128 168-224h-100z"/>
</svg>
