<?xml version="1.0" encoding="UTF-8"?>
<svg xmlns="http://www.w3.org/2000/svg" viewBox="0 0 512 512" role="img" aria-label="Quick Shell concept: folder to terminal">
  <title>Folder to Terminal</title>
  <defs>
    <linearGradient id="folder-terminal-bg" x1="0%" y1="0%" x2="100%" y2="100%">
      <stop offset="0%" stop-color="#1a1d24"/>
      <stop offset="100%" stop-color="#0d0f14"/>
    </linearGradient>
  </defs>
  <rect width="512" height="512" rx="96" fill="url(#folder-terminal-bg)"/>

  <g transform="translate(40 186)">
    <path fill="#0078D4" d="M0 32C0 14.3 14.3 0 32 0h72l32 32h96c17.7 0 32 14.3 32 32v96c0 17.7-14.3 32-32 32H32C14.3 192 0 177.7 0 160V32z"/>
    <path fill="#50A0FF" fill-opacity="0.55" d="M0 48h32l32-32h72l16 32H0z"/>
  </g>

  <g fill="none" stroke="#E8EAED" stroke-width="18" stroke-linecap="round" stroke-linejoin="round">
    <path d="M210 256h36"/>
    <path d="M234 232l28 24-28 24"/>
  </g>

  <g transform="translate(248 168)">
    <rect width="224" height="176" rx="20" fill="#252830" stroke="#3D4450" stroke-width="6"/>
    <rect x="0" y="0" width="224" height="36" rx="20" fill="#303540"/>
    <rect y="18" width="224" height="18" fill="#252830"/>
    <circle cx="22" cy="18" r="6" fill="#FF5F57"/>
    <circle cx="42" cy="18" r="6" fill="#FFBD2E"/>
    <circle cx="62" cy="18" r="6" fill="#28CA41"/>
    <path fill="#4EC9B0" d="M28 112 L28 80 L56 96 Z"/>
    <rect x="68" y="92" width="48" height="10" rx="3" fill="#4EC9B0"/>
  </g>
</svg>
