<?xml version="1.0" encoding="UTF-8"?>
<svg xmlns="http://www.w3.org/2000/svg" viewBox="0 0 512 512" role="img" aria-label="Quick Shell: folder to terminal, flow launch">
  <title>Folder to Terminal - Flow Launch</title>
  <defs>
    <linearGradient id="b-bg" x1="0%" y1="0%" x2="100%" y2="100%">
      <stop offset="0%" stop-color="#12151c"/>
      <stop offset="100%" stop-color="#0a0c10"/>
    </linearGradient>
    <linearGradient id="b-flow" x1="0%" y1="0%" x2="100%" y2="100%">
      <stop offset="0%" stop-color="#0078D4"/>
      <stop offset="100%" stop-color="#4EC9B0"/>
    </linearGradient>
  </defs>
  <rect width="512" height="512" rx="96" fill="url(#b-bg)"/>

  <path
    fill="none"
    stroke="url(#b-flow)"
    stroke-width="14"
    stroke-linecap="round"
    stroke-linejoin="round"
    opacity="0.35"
    d="M136 196 C208 196, 240 300, 300 300"
  />
  <path
    fill="none"
    stroke="url(#b-flow)"
    stroke-width="14"
    stroke-linecap="round"
    stroke-linejoin="round"
    d="M136 196 C208 196, 240 300, 300 300"
  />
  <path fill="#4EC9B0" d="M300 276 L340 300 L300 324 Z"/>

  <g transform="translate(48 96)">
    <path fill="#0078D4" d="M0 32C0 14.3 14.3 0 32 0h64l32 32h88c17.7 0 32 14.3 32 32v96c0 17.7-14.3 32-32 32H32C14.3 192 0 177.7 0 160V32z"/>
    <path fill="#50A0FF" fill-opacity="0.5" d="M0 48h32l32-32h64l16 32H0z"/>
  </g>

  <g transform="translate(248 248)">
    <rect width="216" height="168" rx="24" fill="#1E232B" stroke="#0078D4" stroke-width="6"/>
    <rect x="0" y="0" width="216" height="32" rx="24" fill="#2A303A"/>
    <rect y="16" width="216" height="16" fill="#1E232B"/>
    <path fill="#4EC9B0" d="M28 112 L28 80 L56 96 Z"/>
    <rect x="68" y="92" width="52" height="10" rx="3" fill="#4EC9B0" opacity="0.85"/>
  </g>
</svg>
